<svg version="1.1" id="Layer_1" xmlns="http://www.w3.org/2000/svg" xmlns:xlink="http://www.w3.org/1999/xlink" x="0px" y="0px"
	 width="100%" viewBox="0 0 1388 1216" enable-background="new 0 0 1388 1216" xml:space="preserve">
<path fill="#FFFFFF" opacity="1.000000" stroke="none" 
	d="
M819.000000,1217.000000 
	C546.000000,1217.000000 273.500000,1217.000000 1.000000,1217.000000 
	C1.000000,811.666687 1.000000,406.333344 1.000000,1.000000 
	C463.666656,1.000000 926.333313,1.000000 1389.000000,1.000000 
	C1389.000000,406.333344 1389.000000,811.666687 1389.000000,1217.000000 
	C1199.166626,1217.000000 1009.333313,1217.000000 819.000000,1217.000000 
M968.500000,192.999420 
	C711.407593,192.999420 454.315155,192.999420 197.285324,192.999420 
	C197.285324,409.305969 197.285324,625.042480 197.285324,840.715454 
	C538.639954,840.715454 879.708618,840.715454 1220.714478,840.715454 
	C1220.714478,624.693848 1220.714478,408.957336 1220.714478,192.999420 
	C1136.785889,192.999420 1053.142944,192.999420 968.500000,192.999420 
M931.478882,950.000000 
	C927.047241,950.000000 922.615601,950.000000 918.296631,950.000000 
	C918.296631,978.995850 918.296631,1007.399109 918.296631,1035.699951 
	C926.336670,1035.699951 934.076660,1035.699951 942.000000,1035.699951 
	C942.000000,1014.588257 941.998657,993.776001 942.000916,972.963806 
	C942.001465,967.773926 943.864441,966.209656 949.375305,965.948242 
	C954.697876,965.695923 953.976562,969.356750 953.982239,972.531067 
	C954.017517,992.195251 953.995117,1011.859619 954.010071,1031.523926 
	C954.011169,1032.957642 954.156494,1034.391235 954.227905,1035.699463 
	C962.670715,1035.699463 970.743713,1035.699463 979.000000,1035.699463 
	C979.000000,1033.751709 979.000000,1032.103516 979.000000,1030.455200 
	C979.000000,1010.957520 978.948181,991.459473 979.098572,971.962952 
	C979.110596,970.404602 980.105286,968.164246 981.348572,967.421753 
	C987.411621,963.800720 990.984985,965.997437 990.992737,973.093445 
	C991.013916,992.591125 990.995117,1012.088745 991.010315,1031.586426 
	C991.011475,1033.014893 991.158081,1034.443359 991.226379,1035.677246 
	C999.715881,1035.677246 1007.790161,1035.677246 1016.000000,1035.677246 
	C1016.000000,1014.703125 1016.053772,994.051086 1015.954041,973.399780 
	C1015.934387,969.325562 1015.618164,965.203125 1014.922241,961.192566 
	C1013.549927,953.283569 1006.805115,948.144531 998.612000,947.960693 
	C990.155396,947.770935 983.233337,950.956848 977.201477,957.227051 
	C973.712830,950.261658 968.086914,946.831360 960.741699,948.146484 
	C954.332581,949.293945 948.148926,951.700317 942.030518,953.502014 
	C942.004456,952.984741 941.933350,951.572205 941.854187,950.000000 
	C938.439453,950.000000 935.450623,950.000000 931.478882,950.000000 
M423.000366,1030.814697 
	C423.446991,1032.485840 423.893616,1034.157104 424.312866,1035.725830 
	C430.260040,1035.725830 436.010529,1035.725830 441.730896,1035.725830 
	C441.730896,1014.718018 441.730896,993.985413 441.730896,973.268188 
	C430.057251,973.268188 418.654663,973.268188 407.267883,973.268188 
	C407.267883,978.946838 407.267883,984.353027 407.267883,990.146484 
	C410.940369,990.146484 414.358582,990.146484 418.399506,990.146484 
	C417.908325,996.944763 417.909790,1003.392090 416.824646,1009.650940 
	C416.111969,1013.761536 413.883972,1017.456970 408.690948,1018.062317 
	C403.533997,1018.663513 400.988708,1015.448547 399.379181,1011.671753 
	C398.213074,1008.935486 398.073883,1005.620239 398.055267,1002.559570 
	C397.943756,984.234802 397.944885,965.908691 398.054138,947.583801 
	C398.072388,944.522461 398.459991,941.367798 399.291077,938.430054 
	C400.414520,934.458740 403.815125,933.002380 407.598358,933.082336 
	C411.541687,933.165710 414.862518,937.186279 414.971344,941.680481 
	C415.094452,946.762634 414.999756,951.850098 414.999756,956.649780 
	C424.443115,956.649780 433.183411,956.649780 442.469391,956.649780 
	C441.959351,949.714294 441.991669,943.074951 440.880157,936.632935 
	C439.030243,925.911255 432.752441,918.734497 422.084442,915.486206 
	C414.484558,913.171997 406.801117,913.503418 399.084625,914.022217 
	C389.872009,914.641541 382.367523,918.417419 376.960297,926.150146 
	C371.612946,933.797302 370.448395,942.670105 370.141388,951.476929 
	C369.625122,966.285889 369.809021,981.129639 370.091400,995.951172 
	C370.208801,1002.112244 370.753204,1008.387756 372.125275,1014.377075 
	C375.040527,1027.102661 382.486420,1035.709351 396.095764,1037.603027 
	C406.515167,1039.052856 416.259613,1038.317871 422.875519,1027.816772 
	C422.943176,1029.011108 422.971375,1029.508911 423.000366,1030.814697 
M212.477493,1018.017029 
	C211.410461,1023.878479 210.343414,1029.739868 209.253845,1035.725098 
	C218.063797,1035.725098 226.955368,1035.725098 235.532944,1035.725098 
	C236.826675,1027.412231 238.071243,1019.415283 239.380905,1011.000061 
	C243.751846,1011.000061 248.223450,1011.202637 252.665955,1010.930420 
	C255.751694,1010.741333 256.648163,1012.253967 257.011322,1014.833801 
	C257.997681,1021.840515 259.049896,1028.838013 260.069031,1035.791504 
	C268.966705,1035.791504 277.399628,1035.791504 285.856232,1035.791504 
	C284.544586,1029.112183 283.190674,1022.653564 282.017792,1016.162292 
	C278.628632,997.405701 275.374176,978.624573 271.946930,959.875000 
	C269.394104,945.909424 266.710205,931.966675 263.897034,918.051697 
	C263.661591,916.887024 262.016479,915.158020 260.992767,915.134216 
	C251.373276,914.910583 241.746490,915.001404 232.178986,915.001404 
	C230.064240,925.544739 227.975800,935.659607 226.016083,945.799438 
	C223.321991,959.739136 220.668503,973.687195 218.106262,987.651611 
	C216.297623,997.508850 214.669403,1007.399170 212.477493,1018.017029 
M311.464905,978.978149 
	C316.182068,983.353882 321.458862,987.280457 325.442902,992.244568 
	C328.749268,996.364319 331.110565,1001.513184 332.797241,1006.570801 
	C334.001831,1010.182861 332.471558,1014.465210 328.880615,1016.274170 
	C327.164978,1017.138428 323.699188,1016.133301 321.906250,1014.795288 
	C320.050690,1013.410706 318.660126,1010.731262 318.136078,1008.379700 
	C317.168579,1004.038330 316.982788,999.522766 316.487122,995.216980 
	C308.544617,996.523071 300.799438,997.796692 292.580017,999.148315 
	C293.099335,1003.420715 293.412323,1007.152283 294.026611,1010.833557 
	C295.890869,1022.005981 300.696686,1031.557617 312.024323,1035.242432 
	C318.528259,1037.358154 325.865265,1038.241455 332.685059,1037.741333 
	C342.553680,1037.017456 351.063782,1032.365112 355.931976,1023.174561 
	C364.021240,1007.903198 360.074707,990.029785 348.423706,978.023010 
	C340.702484,970.065918 332.478912,962.593628 324.418152,954.969910 
	C320.019531,950.809753 319.185730,945.397461 320.297211,940.099060 
	C320.790131,937.749207 323.960846,935.015564 326.409149,934.391785 
	C327.780945,934.042297 330.973450,937.313354 331.900635,939.551697 
	C333.378815,943.120239 333.651672,947.188110 334.492523,951.332153 
	C342.519684,950.401184 350.136475,949.517822 357.754150,948.619507 
	C357.169250,944.166504 356.632538,939.706543 355.988617,935.262085 
	C354.928162,927.942444 348.066681,916.219360 337.685089,915.005371 
	C332.508179,914.400024 327.248657,913.848450 322.063446,914.084595 
	C303.383942,914.935120 293.978912,926.279419 293.002533,943.234802 
	C292.125061,958.472229 299.144470,969.692261 311.464905,978.978149 
M771.000000,1022.492065 
	C771.000000,1026.924805 771.000000,1031.357544 771.000000,1035.722534 
	C779.633667,1035.722534 787.701172,1035.722534 795.999817,1035.722534 
	C795.999817,1034.638184 795.999878,1033.830322 795.999878,1033.022461 
	C796.000000,1012.708984 796.078613,992.395020 795.944031,972.082458 
	C795.910889,967.078918 799.850098,966.658752 802.808655,966.194092 
	C806.495972,965.615112 807.067993,968.731445 807.030701,971.862061 
	C806.937500,979.686646 807.000000,987.513062 807.000000,995.338745 
	C807.000000,1008.774597 807.000000,1022.210449 807.000000,1035.786133 
	C815.503174,1035.786133 823.569336,1035.786133 832.000000,1035.786133 
	C832.000000,1033.953491 832.000000,1032.329102 832.000000,1030.704712 
	C832.000000,1009.225708 831.610840,987.736877 832.148010,966.271362 
	C832.463196,953.675354 822.143311,943.789551 808.239746,949.415344 
	C803.936646,951.156433 800.039917,953.901855 795.933838,956.200500 
	C795.933838,954.389709 795.933838,952.411011 795.933838,950.307373 
	C787.600403,950.307373 779.387451,950.307373 771.000000,950.307373 
	C771.000000,974.241333 771.000000,997.868286 771.000000,1022.492065 
M902.978943,962.880432 
	C900.939514,960.248657 899.191650,957.310486 896.807068,955.041321 
	C888.996216,947.608948 878.949585,946.939331 869.268921,948.207642 
	C852.791809,950.366455 845.094299,958.097290 844.145447,974.282959 
	C843.415833,986.728882 843.663086,999.264099 844.117310,1011.736267 
	C844.425415,1020.197144 847.104614,1027.876831 855.090393,1032.647095 
	C863.563965,1037.708862 872.456726,1038.452759 882.137695,1037.153198 
	C895.320251,1035.383667 905.148743,1025.229614 905.023682,1011.534424 
	C904.911194,999.213257 905.148560,986.887451 904.908386,974.569885 
	C904.837463,970.933411 903.668823,967.318298 902.978943,962.880432 
M703.972961,956.543823 
	C698.426636,962.729187 697.206238,970.474121 697.123535,978.212036 
	C696.992859,990.436035 697.695190,1002.667969 697.990417,1014.897888 
	C698.201965,1023.661621 704.577820,1032.056641 712.776001,1035.072144 
	C720.943970,1038.076538 729.233032,1038.913696 737.604736,1036.918091 
	C749.342834,1034.120239 756.778809,1027.274902 757.795837,1016.569641 
	C758.997131,1003.923950 758.812134,991.133850 758.911743,978.403870 
	C758.941833,974.560120 758.301636,970.606079 757.307068,966.879028 
	C754.290771,955.575256 746.247009,950.014893 735.064697,948.537720 
	C723.934692,947.067566 713.311218,947.933289 703.972961,956.543823 
M1035.002319,997.425476 
	C1038.327881,1008.984436 1041.869629,1020.487183 1044.898438,1032.123413 
	C1046.734253,1039.176270 1043.366333,1042.927734 1036.003052,1042.997803 
	C1034.410889,1043.012939 1032.818359,1043.000000 1031.281982,1043.000000 
	C1031.281982,1049.305542 1031.281982,1055.043335 1031.281982,1061.000000 
	C1034.537598,1061.000000 1037.513916,1061.037476 1040.488770,1060.992798 
	C1048.411377,1060.873779 1055.230347,1058.495605 1061.029663,1052.641235 
	C1066.486816,1047.132080 1067.308838,1040.024536 1068.905884,1033.251953 
	C1074.151489,1011.009277 1079.011963,988.675476 1083.987671,966.369385 
	C1085.166382,961.085083 1086.216187,955.771973 1087.383423,950.194946 
	C1078.885986,950.194946 1071.124512,950.194946 1063.590576,950.194946 
	C1061.151245,964.878601 1058.749634,979.335144 1056.348022,993.791626 
	C1056.009155,993.730103 1055.670166,993.668518 1055.331299,993.606995 
	C1052.137451,979.060608 1048.943604,964.514221 1045.788452,950.144409 
	C1037.551636,950.144409 1029.908936,950.144409 1021.867371,950.144409 
	C1026.288818,965.782104 1030.643311,981.182861 1035.002319,997.425476 
M512.735840,964.207336 
	C510.083496,960.464050 507.968781,956.132812 504.659943,953.107483 
	C498.889954,947.831848 491.318756,947.563538 483.933990,948.039673 
	C464.260315,949.308228 456.973969,960.269897 456.464020,978.898682 
	C464.272949,979.337463 472.079041,979.776062 479.415070,980.188232 
	C480.078369,976.086609 480.304810,972.792480 481.262238,969.726624 
	C481.629547,968.550415 483.597321,967.339722 484.960571,967.174561 
	C486.090637,967.037659 488.300140,968.235229 488.480896,969.148499 
	C489.265411,973.111267 489.975891,977.233704 489.597870,981.191589 
	C489.487122,982.350769 485.701874,983.173279 483.588043,984.121704 
	C482.125885,984.777710 480.641083,985.383057 479.167877,986.014404 
	C462.267212,993.257446 452.605469,1001.237000 455.024597,1021.100037 
	C456.270844,1031.333008 466.840759,1039.886719 478.353333,1037.421753 
	C484.629944,1036.078003 487.701752,1031.973145 491.448120,1025.944946 
	C491.712616,1029.094727 491.510681,1030.941162 492.104309,1032.480835 
	C492.625275,1033.832031 493.993286,1035.792480 495.064392,1035.843018 
	C501.659088,1036.153687 508.275665,1035.998779 514.778564,1035.998779 
	C514.170349,1011.953674 513.576599,988.482361 512.735840,964.207336 
M593.000000,930.560059 
	C593.000000,936.989380 593.000000,943.418701 593.000000,950.215332 
	C589.665222,950.215332 586.924438,950.215332 584.292480,950.215332 
	C584.292480,955.678894 584.292480,960.752991 584.292480,966.205200 
	C587.325256,966.205200 590.072449,966.205200 593.000000,966.205200 
	C593.000000,984.051697 592.976135,1001.513428 593.010010,1018.975037 
	C593.027039,1027.721313 598.128357,1034.836304 606.656738,1035.793945 
	C614.936401,1036.723999 623.402283,1035.995850 632.000000,1035.995850 
	C632.000000,1032.275024 632.000000,1029.128906 632.000000,1025.982910 
	C632.000000,1022.688782 632.000000,1019.394714 632.000000,1016.131226 
	C629.872925,1016.131226 628.203003,1015.994629 626.562378,1016.156006 
	C620.808105,1016.721924 618.014099,1014.398376 618.004578,1008.848755 
	C617.987976,999.192017 618.000000,989.535217 618.000000,979.878479 
	C618.000000,975.291687 618.000000,970.704956 618.000000,965.740112 
	C622.390930,965.740112 626.133728,965.740112 629.677979,965.740112 
	C629.677979,960.269836 629.677979,955.198486 629.677979,949.744751 
	C625.613892,949.744751 621.871582,949.744751 617.756653,949.744751 
	C617.756653,940.616943 617.756653,931.877930 617.756653,923.314148 
	C609.292175,923.314148 601.223938,923.314148 593.000000,923.314148 
	C593.000000,925.610413 593.000000,927.593445 593.000000,930.560059 
M572.539917,957.025696 
	C564.370483,947.666016 553.926147,946.257812 542.714966,949.221191 
	C535.005005,951.259094 528.397461,955.564209 526.080200,963.779297 
	C523.274475,973.726685 524.122620,983.259583 532.294189,990.720581 
	C539.174622,997.002991 546.322205,1002.996216 553.433105,1009.021179 
	C556.211304,1011.375122 558.135986,1017.212646 556.441956,1018.941101 
	C554.538818,1020.883118 548.783813,1020.176331 546.089600,1017.586365 
	C545.279785,1016.807739 544.630249,1015.841736 544.002747,1014.898132 
	C542.433777,1012.538635 540.919495,1010.142822 539.535583,1007.997620 
	C534.878113,1009.838867 530.650635,1011.324646 526.600891,1013.195312 
	C524.790955,1014.031311 521.566711,1014.642700 523.514343,1017.995056 
	C525.607544,1021.597900 527.355469,1025.630737 530.221863,1028.513550 
	C540.305603,1038.655151 552.632385,1040.057617 565.633728,1035.651733 
	C579.176819,1031.062378 585.410583,1016.262390 578.381348,1004.254517 
	C574.584167,997.767883 568.539307,992.513550 563.135315,987.073975 
	C557.589355,981.491394 549.930237,977.920593 546.993958,969.907837 
	C551.300232,964.844971 553.220215,964.668457 557.608521,969.185364 
	C558.940796,970.556824 560.288513,972.168823 560.908630,973.925049 
	C562.342041,977.984619 564.269897,978.921814 568.123230,976.525635 
	C571.475891,974.440613 575.234436,973.008240 578.995972,971.199829 
	C579.212646,965.806519 576.512573,961.518555 572.539917,957.025696 
M670.336548,978.115173 
	C675.686584,971.785583 682.203369,970.395325 689.813049,974.127136 
	C689.813049,965.404846 689.813049,957.290405 689.813049,949.118713 
	C679.249695,946.797546 673.229492,952.615112 667.952515,960.524292 
	C667.952515,957.133484 667.952515,953.742737 667.952515,950.198486 
	C659.528442,950.198486 651.462341,950.198486 643.332886,950.198486 
	C643.332886,978.890198 643.332886,1007.382263 643.332886,1035.676025 
	C651.734802,1035.676025 659.801208,1035.676025 668.000000,1035.676025 
	C668.000000,1018.224304 667.947021,1001.095703 668.080383,983.968506 
	C668.093994,982.215820 669.223877,980.471802 670.336548,978.115173 
M1175.000000,1027.458130 
	C1175.000000,1030.229736 1175.000000,1033.001465 1175.000000,1035.734009 
	C1179.277588,1035.734009 1183.013916,1035.734009 1187.000000,1035.734009 
	C1187.000000,1026.011963 1187.092041,1016.552124 1186.954102,1007.095703 
	C1186.900146,1003.400696 1188.469482,1002.483948 1192.093262,1003.338623 
	C1192.093262,1014.186462 1192.093262,1024.934204 1192.093262,1035.773193 
	C1196.197754,1035.773193 1199.932251,1035.773193 1204.000000,1035.773193 
	C1204.000000,1026.101562 1204.091309,1016.651428 1203.953369,1007.204651 
	C1203.900879,1003.613342 1205.254028,1002.372803 1209.030518,1003.349304 
	C1209.030518,1014.095154 1209.030518,1024.848145 1209.030518,1035.797363 
	C1213.117432,1035.797363 1216.851562,1035.797363 1220.996704,1035.797363 
	C1220.996704,1024.027344 1221.230225,1012.415955 1220.774414,1000.831665 
	C1220.695435,998.823364 1218.063477,996.277344 1215.977905,995.115845 
	C1211.307373,992.514771 1207.249512,995.434265 1203.209351,997.711853 
	C1199.453857,993.445923 1194.968140,993.202209 1190.038452,995.409241 
	C1189.110718,995.824524 1188.059204,996.431213 1187.141479,996.319519 
	C1183.192871,995.838928 1179.272949,995.123474 1175.000000,994.438721 
	C1175.000000,1005.873657 1175.000000,1016.169983 1175.000000,1027.458130 
M1153.676758,1037.000000 
	C1162.364380,1037.290894 1170.387085,1032.856812 1169.082886,1021.881409 
	C1168.575684,1017.612427 1168.649536,1013.198059 1169.073486,1008.910767 
	C1169.929077,1000.260742 1165.936523,996.130554 1157.098145,994.058655 
	C1150.245605,992.452271 1142.345215,997.265930 1141.062744,1004.238037 
	C1140.152100,1009.189209 1140.074585,1014.336853 1140.050903,1019.398804 
	C1140.003296,1029.573853 1141.516602,1035.409058 1153.676758,1037.000000 
M1108.000000,1019.424561 
	C1108.000000,1020.920593 1108.034668,1022.417542 1107.994263,1023.912476 
	C1107.778931,1031.879639 1112.629028,1035.382324 1119.194092,1036.911499 
	C1126.210815,1038.545898 1133.013550,1035.291626 1135.093628,1029.215820 
	C1136.145264,1026.143921 1135.897095,1022.626892 1136.242798,1019.250549 
	C1131.731201,1019.250549 1127.990845,1019.250549 1123.931885,1019.250549 
	C1123.931885,1022.267456 1123.931885,1025.037842 1123.931885,1027.802490 
	C1118.866577,1027.806396 1120.220581,1028.905029 1119.987549,1007.188843 
	C1119.959961,1004.619202 1120.237549,1002.506165 1124.031372,1003.257141 
	C1124.031372,1006.100098 1124.031372,1008.859680 1124.031372,1011.804810 
	C1128.121948,1011.804810 1131.860474,1011.804810 1136.000000,1011.804810 
	C1136.000000,1010.196411 1135.978394,1008.740417 1136.003662,1007.285278 
	C1136.156250,998.521606 1133.131470,996.445984 1124.356445,994.155212 
	C1118.788818,992.701782 1111.040405,995.854065 1109.473022,1001.417969 
	C1107.955566,1006.804993 1108.411133,1012.747925 1108.000000,1019.424561 
M1100.348877,1035.999756 
	C1101.231445,1035.396240 1102.813477,1034.857056 1102.875977,1034.178101 
	C1103.153687,1031.158691 1102.996460,1028.099121 1102.996460,1025.314697 
	C1098.564819,1025.314697 1094.851196,1025.314697 1091.276123,1025.314697 
	C1091.276123,1029.016846 1091.276123,1032.400146 1091.276123,1036.000000 
	C1094.162842,1036.000000 1096.775635,1036.000000 1100.348877,1035.999756 
z"/>
<path fill="#000000" opacity="1.000000" stroke="none" 
	d="
M969.000000,192.999420 
	C1053.142944,192.999420 1136.785889,192.999420 1220.714478,192.999420 
	C1220.714478,408.957336 1220.714478,624.693848 1220.714478,840.715454 
	C879.708618,840.715454 538.639954,840.715454 197.285324,840.715454 
	C197.285324,625.042480 197.285324,409.305969 197.285324,192.999420 
	C454.315155,192.999420 711.407593,192.999420 969.000000,192.999420 
M872.191406,378.774902 
	C866.503418,398.027649 863.294861,417.726471 863.184875,437.762390 
	C862.900574,489.591400 862.948547,541.422791 863.037476,593.252991 
	C863.077332,616.494385 866.028381,639.397766 873.156555,661.583801 
	C882.027832,689.195007 898.373169,710.557434 925.908386,721.776978 
	C943.954041,729.129761 962.992004,730.545959 982.278870,729.944702 
	C1007.669495,729.153198 1026.606445,717.563354 1039.681641,696.001160 
	C1040.510132,694.634705 1041.360962,693.281799 1042.594360,691.287109 
	C1044.311890,702.649170 1045.908936,713.213684 1047.495850,723.711853 
	C1067.787720,723.711853 1087.700195,723.711853 1107.594360,723.711853 
	C1107.594360,652.360718 1107.594360,581.299133 1107.594360,510.318665 
	C1067.718628,510.318665 1028.148315,510.318665 988.531250,510.318665 
	C988.531250,528.232788 988.531250,545.826233 988.531250,564.005249 
	C1000.975281,564.005249 1013.183533,564.005249 1025.645630,564.005249 
	C1025.645630,581.733337 1025.976685,598.884521 1025.529541,616.015259 
	C1025.230225,627.482361 1023.720947,638.895874 1018.110168,649.283203 
	C1011.433655,661.643433 1000.630005,665.853699 987.215942,665.018860 
	C974.748169,664.242920 966.567017,657.674988 961.855042,646.392761 
	C957.205444,635.259888 956.414001,623.449402 956.391357,611.637817 
	C956.270691,548.640625 956.223877,485.642731 956.452148,422.646149 
	C956.486938,413.048340 957.312805,403.304535 959.144531,393.895264 
	C962.278015,377.798767 971.798279,370.666260 988.022583,370.718231 
	C1004.019714,370.769501 1012.830322,377.385468 1015.687683,393.054169 
	C1017.348694,402.162628 1017.605774,411.574707 1017.915466,420.869476 
	C1018.274658,431.651154 1017.999084,442.453949 1017.999084,453.359680 
	C1047.950684,453.359680 1077.484985,453.359680 1107.281494,453.359680 
	C1107.234741,430.062500 1108.247314,407.133881 1102.998169,384.451111 
	C1093.815796,344.771484 1069.963989,319.624451 1030.174927,310.472931 
	C1006.445435,305.015167 982.354736,304.728546 958.220947,308.004578 
	C915.316406,313.828674 885.901184,336.126312 872.191406,378.774902 
M324.520660,652.989685 
	C320.082397,676.554688 315.644165,700.119690 311.201050,723.710632 
	C340.335846,723.710632 368.940857,723.710632 397.617157,723.710632 
	C402.391632,694.651245 407.121704,665.861938 411.829712,637.207092 
	C432.257721,637.207092 452.053589,637.207092 471.893555,637.207092 
	C476.489990,666.235840 481.055756,695.070801 485.577850,723.630066 
	C514.036255,723.630066 541.906799,723.630066 569.973328,723.630066 
	C544.351807,586.180420 518.803833,449.125366 493.230103,311.932251 
	C458.347290,311.932251 423.762207,311.932251 389.241119,311.932251 
	C388.898499,312.983551 388.549103,313.757812 388.395752,314.569122 
	C382.284424,346.906952 376.200562,379.249939 370.092682,411.588440 
	C361.209808,458.619293 352.293030,505.643768 343.425568,552.677551 
	C337.174347,585.834717 330.980957,619.002747 324.520660,652.989685 
M717.309937,373.867218 
	C726.355652,375.642792 730.978577,382.154694 732.893066,390.224915 
	C734.990662,399.066895 735.907959,408.206970 737.029236,417.255585 
	C737.674255,422.461121 737.704468,427.742859 738.023499,433.197174 
	C764.537537,429.920288 790.416382,426.721893 816.655579,423.478973 
	C816.536194,421.213745 816.460449,419.273254 816.327698,417.336700 
	C814.935181,397.022949 812.250244,377.007416 803.978943,358.094635 
	C792.748962,332.416870 773.795105,315.571259 746.466614,309.491943 
	C718.151550,303.193085 689.797913,304.524750 662.400085,314.414154 
	C634.085876,324.634460 613.900024,343.678680 604.476440,372.765564 
	C597.423340,394.535767 597.069336,416.858765 600.551453,439.362152 
	C604.374817,464.071259 617.064087,484.269043 633.861511,501.742584 
	C647.553528,515.985779 662.725891,528.826172 677.479126,542.023376 
	C692.119385,555.119507 707.254272,567.640625 719.312988,583.384460 
	C732.050110,600.014160 736.672791,618.709167 733.905212,639.177979 
	C732.658020,648.402161 729.938538,657.331726 718.932495,659.870728 
	C706.692139,662.694519 694.513733,657.661316 687.922058,646.838440 
	C681.548706,636.374084 679.286072,624.629883 677.960815,612.696960 
	C677.030457,604.319031 676.579834,595.887817 675.898071,587.266907 
	C649.755188,591.208435 623.903198,595.106140 598.169983,598.985962 
	C597.938782,617.279602 601.996460,643.819824 607.311584,660.125916 
	C618.016235,692.966553 639.054138,715.380920 672.843140,724.686035 
	C692.965271,730.227417 713.466003,731.171387 734.202576,729.034912 
	C784.894104,723.812195 822.963318,682.911316 824.750488,631.840332 
	C826.024170,595.438965 815.978333,563.135254 792.420776,534.846130 
	C776.526733,515.759827 757.399780,500.274139 739.383667,483.505463 
	C725.761719,470.826721 712.125793,458.041962 699.736572,444.194519 
	C687.723083,430.767151 684.900452,413.942719 687.997742,396.441193 
	C691.091309,378.960907 701.386536,371.093384 717.309937,373.867218 
M234.075699,218.333511 
	C226.541626,223.611862 223.518433,230.749435 225.582382,238.385712 
	C227.657043,246.061630 233.974213,251.443924 241.549164,251.989624 
	C249.183853,252.539612 256.077118,248.516006 259.318695,241.617462 
	C262.468658,234.913879 261.252869,227.137375 256.210571,221.736816 
	C250.690125,215.824127 243.247543,214.527115 234.075699,218.333511 
M1184.569092,782.666260 
	C1177.480225,779.527710 1170.864990,780.490417 1165.100586,785.518372 
	C1159.801636,790.140259 1157.878418,796.198242 1159.480225,803.082275 
	C1161.394897,811.311218 1168.477905,816.893372 1176.726074,817.003052 
	C1184.878784,817.111450 1191.807983,811.987427 1194.210449,804.073792 
	C1196.724121,795.793945 1193.510986,788.215576 1184.569092,782.666260 
M1160.681763,226.463348 
	C1157.588135,235.074524 1159.207520,242.521362 1165.303955,247.718750 
	C1171.044922,252.613083 1179.203125,253.425354 1185.775879,249.756897 
	C1192.291626,246.120239 1196.007080,238.548187 1194.858154,231.247452 
	C1193.702881,223.906418 1188.030151,217.939392 1180.638062,216.289474 
	C1173.079224,214.602310 1165.862305,218.081482 1160.681763,226.463348 
M258.993744,790.913757 
	C255.418762,783.592590 249.906189,779.577637 241.408020,779.946045 
	C234.592606,780.241577 228.409012,784.682007 225.551498,791.958069 
	C223.575439,796.989685 225.782150,807.010986 230.028076,810.446655 
	C236.903732,816.010132 244.779831,816.906433 251.658188,812.677002 
	C258.911316,808.217102 261.857239,800.583618 258.993744,790.913757 
z"/>
<path fill="#000000" opacity="1.000000" stroke="none" 
	d="
M931.970337,950.000000 
	C935.450623,950.000000 938.439453,950.000000 941.854187,950.000000 
	C941.933350,951.572205 942.004456,952.984741 942.030518,953.502014 
	C948.148926,951.700317 954.332581,949.293945 960.741699,948.146484 
	C968.086914,946.831360 973.712830,950.261658 977.201477,957.227051 
	C983.233337,950.956848 990.155396,947.770935 998.612000,947.960693 
	C1006.805115,948.144531 1013.549927,953.283569 1014.922241,961.192566 
	C1015.618164,965.203125 1015.934387,969.325562 1015.954041,973.399780 
	C1016.053772,994.051086 1016.000000,1014.703125 1016.000000,1035.677246 
	C1007.790161,1035.677246 999.715881,1035.677246 991.226379,1035.677246 
	C991.158081,1034.443359 991.011475,1033.014893 991.010315,1031.586426 
	C990.995117,1012.088745 991.013916,992.591125 990.992737,973.093445 
	C990.984985,965.997437 987.411621,963.800720 981.348572,967.421753 
	C980.105286,968.164246 979.110596,970.404602 979.098572,971.962952 
	C978.948181,991.459473 979.000000,1010.957520 979.000000,1030.455200 
	C979.000000,1032.103516 979.000000,1033.751709 979.000000,1035.699463 
	C970.743713,1035.699463 962.670715,1035.699463 954.227905,1035.699463 
	C954.156494,1034.391235 954.011169,1032.957642 954.010071,1031.523926 
	C953.995117,1011.859619 954.017517,992.195251 953.982239,972.531067 
	C953.976562,969.356750 954.697876,965.695923 949.375305,965.948242 
	C943.864441,966.209656 942.001465,967.773926 942.000916,972.963806 
	C941.998657,993.776001 942.000000,1014.588257 942.000000,1035.699951 
	C934.076660,1035.699951 926.336670,1035.699951 918.296631,1035.699951 
	C918.296631,1007.399109 918.296631,978.995850 918.296631,950.000000 
	C922.615601,950.000000 927.047241,950.000000 931.970337,950.000000 
z"/>
<path fill="#000000" opacity="1.000000" stroke="none" 
	d="
M423.000000,1030.410767 
	C422.971375,1029.508911 422.943176,1029.011108 422.875519,1027.816772 
	C416.259613,1038.317871 406.515167,1039.052856 396.095764,1037.603027 
	C382.486420,1035.709351 375.040527,1027.102661 372.125275,1014.377075 
	C370.753204,1008.387756 370.208801,1002.112244 370.091400,995.951172 
	C369.809021,981.129639 369.625122,966.285889 370.141388,951.476929 
	C370.448395,942.670105 371.612946,933.797302 376.960297,926.150146 
	C382.367523,918.417419 389.872009,914.641541 399.084625,914.022217 
	C406.801117,913.503418 414.484558,913.171997 422.084442,915.486206 
	C432.752441,918.734497 439.030243,925.911255 440.880157,936.632935 
	C441.991669,943.074951 441.959351,949.714294 442.469391,956.649780 
	C433.183411,956.649780 424.443115,956.649780 414.999756,956.649780 
	C414.999756,951.850098 415.094452,946.762634 414.971344,941.680481 
	C414.862518,937.186279 411.541687,933.165710 407.598358,933.082336 
	C403.815125,933.002380 400.414520,934.458740 399.291077,938.430054 
	C398.459991,941.367798 398.072388,944.522461 398.054138,947.583801 
	C397.944885,965.908691 397.943756,984.234802 398.055267,1002.559570 
	C398.073883,1005.620239 398.213074,1008.935486 399.379181,1011.671753 
	C400.988708,1015.448547 403.533997,1018.663513 408.690948,1018.062317 
	C413.883972,1017.456970 416.111969,1013.761536 416.824646,1009.650940 
	C417.909790,1003.392090 417.908325,996.944763 418.399506,990.146484 
	C414.358582,990.146484 410.940369,990.146484 407.267883,990.146484 
	C407.267883,984.353027 407.267883,978.946838 407.267883,973.268188 
	C418.654663,973.268188 430.057251,973.268188 441.730896,973.268188 
	C441.730896,993.985413 441.730896,1014.718018 441.730896,1035.725830 
	C436.010529,1035.725830 430.260040,1035.725830 424.312866,1035.725830 
	C423.893616,1034.157104 423.446991,1032.485840 423.000000,1030.410767 
z"/>
<path fill="#000000" opacity="1.000000" stroke="none" 
	d="
M212.719055,1017.645874 
	C214.669403,1007.399170 216.297623,997.508850 218.106262,987.651611 
	C220.668503,973.687195 223.321991,959.739136 226.016083,945.799438 
	C227.975800,935.659607 230.064240,925.544739 232.178986,915.001404 
	C241.746490,915.001404 251.373276,914.910583 260.992767,915.134216 
	C262.016479,915.158020 263.661591,916.887024 263.897034,918.051697 
	C266.710205,931.966675 269.394104,945.909424 271.946930,959.875000 
	C275.374176,978.624573 278.628632,997.405701 282.017792,1016.162292 
	C283.190674,1022.653564 284.544586,1029.112183 285.856232,1035.791504 
	C277.399628,1035.791504 268.966705,1035.791504 260.069031,1035.791504 
	C259.049896,1028.838013 257.997681,1021.840515 257.011322,1014.833801 
	C256.648163,1012.253967 255.751694,1010.741333 252.665955,1010.930420 
	C248.223450,1011.202637 243.751846,1011.000061 239.380905,1011.000061 
	C238.071243,1019.415283 236.826675,1027.412231 235.532944,1035.725098 
	C226.955368,1035.725098 218.063797,1035.725098 209.253845,1035.725098 
	C210.343414,1029.739868 211.410461,1023.878479 212.719055,1017.645874 
M243.962692,982.223572 
	C243.297958,986.008240 242.633224,989.792969 241.949814,993.683960 
	C245.787613,993.683960 249.344345,993.683960 253.510193,993.683960 
	C251.673248,980.373108 249.891068,967.459167 248.108902,954.545166 
	C247.821533,954.590027 247.534164,954.634827 247.246796,954.679688 
	C246.163620,963.558899 245.080429,972.438049 243.962692,982.223572 
z"/>
<path fill="#000000" opacity="1.000000" stroke="none" 
	d="
M311.218079,978.716003 
	C299.144470,969.692261 292.125061,958.472229 293.002533,943.234802 
	C293.978912,926.279419 303.383942,914.935120 322.063446,914.084595 
	C327.248657,913.848450 332.508179,914.400024 337.685089,915.005371 
	C348.066681,916.219360 354.928162,927.942444 355.988617,935.262085 
	C356.632538,939.706543 357.169250,944.166504 357.753723,948.626953 
	C350.136475,949.517822 342.519684,950.401184 334.492523,951.332153 
	C333.651672,947.188110 333.378815,943.120239 331.900635,939.551697 
	C330.973450,937.313354 327.780945,934.042297 326.409149,934.391785 
	C323.960846,935.015564 320.790131,937.749207 320.297211,940.099060 
	C319.185730,945.397461 320.019531,950.809753 324.418152,954.969910 
	C332.478912,962.593628 340.702484,970.065918 348.423706,978.023010 
	C360.074707,990.029785 364.021240,1007.903198 355.931976,1023.174561 
	C351.063782,1032.365112 342.553680,1037.017456 332.685059,1037.741333 
	C325.865265,1038.241455 318.528259,1037.358154 312.024323,1035.242432 
	C300.696686,1031.557617 295.890869,1022.005981 294.026611,1010.833557 
	C293.412323,1007.152283 293.099335,1003.420715 292.580017,999.148315 
	C300.799438,997.796692 308.544617,996.523071 316.487122,995.216980 
	C316.982788,999.522766 317.168579,1004.038330 318.136078,1008.379700 
	C318.660126,1010.731262 320.050690,1013.410706 321.906250,1014.795288 
	C323.699188,1016.133301 327.164978,1017.138428 328.880615,1016.274170 
	C332.471558,1014.465210 334.001831,1010.182861 332.797241,1006.570801 
	C331.110565,1001.513184 328.749268,996.364319 325.442902,992.244568 
	C321.458862,987.280457 316.182068,983.353882 311.218079,978.716003 
z"/>
<path fill="#000000" opacity="1.000000" stroke="none" 
	d="
M771.000000,1021.993652 
	C771.000000,997.868286 771.000000,974.241333 771.000000,950.307373 
	C779.387451,950.307373 787.600403,950.307373 795.933838,950.307373 
	C795.933838,952.411011 795.933838,954.389709 795.933838,956.200500 
	C800.039917,953.901855 803.936646,951.156433 808.239746,949.415344 
	C822.143311,943.789551 832.463196,953.675354 832.148010,966.271362 
	C831.610840,987.736877 832.000000,1009.225708 832.000000,1030.704712 
	C832.000000,1032.329102 832.000000,1033.953491 832.000000,1035.786133 
	C823.569336,1035.786133 815.503174,1035.786133 807.000000,1035.786133 
	C807.000000,1022.210449 807.000000,1008.774597 807.000000,995.338745 
	C807.000000,987.513062 806.937500,979.686646 807.030701,971.862061 
	C807.067993,968.731445 806.495972,965.615112 802.808655,966.194092 
	C799.850098,966.658752 795.910889,967.078918 795.944031,972.082458 
	C796.078613,992.395020 796.000000,1012.708984 795.999878,1033.022461 
	C795.999878,1033.830322 795.999817,1034.638184 795.999817,1035.722534 
	C787.701172,1035.722534 779.633667,1035.722534 771.000000,1035.722534 
	C771.000000,1031.357544 771.000000,1026.924805 771.000000,1021.993652 
z"/>
<path fill="#000000" opacity="1.000000" stroke="none" 
	d="
M902.991089,963.286926 
	C903.668823,967.318298 904.837463,970.933411 904.908386,974.569885 
	C905.148560,986.887451 904.911194,999.213257 905.023682,1011.534424 
	C905.148743,1025.229614 895.320251,1035.383667 882.137695,1037.153198 
	C872.456726,1038.452759 863.563965,1037.708862 855.090393,1032.647095 
	C847.104614,1027.876831 844.425415,1020.197144 844.117310,1011.736267 
	C843.663086,999.264099 843.415833,986.728882 844.145447,974.282959 
	C845.094299,958.097290 852.791809,950.366455 869.268921,948.207642 
	C878.949585,946.939331 888.996216,947.608948 896.807068,955.041321 
	C899.191650,957.310486 900.939514,960.248657 902.991089,963.286926 
M880.000000,1013.138184 
	C880.000000,999.472595 880.000427,985.807007 879.999756,972.141418 
	C879.999573,968.756775 878.981140,965.663086 875.341431,965.109558 
	C871.144775,964.471252 870.311340,968.289856 869.059021,971.163635 
	C868.753052,971.865601 869.000610,972.810547 869.000549,973.643799 
	C868.999695,986.142822 868.985718,998.641846 869.021667,1011.140747 
	C869.025391,1012.427429 868.906006,1014.025452 869.578430,1014.937195 
	C871.186096,1017.117371 873.165100,1020.525330 875.116577,1020.609741 
	C878.309326,1020.747864 880.161926,1017.620239 880.000000,1013.138184 
z"/>
<path fill="#000000" opacity="1.000000" stroke="none" 
	d="
M704.228333,956.277100 
	C713.311218,947.933289 723.934692,947.067566 735.064697,948.537720 
	C746.247009,950.014893 754.290771,955.575256 757.307068,966.879028 
	C758.301636,970.606079 758.941833,974.560120 758.911743,978.403870 
	C758.812134,991.133850 758.997131,1003.923950 757.795837,1016.569641 
	C756.778809,1027.274902 749.342834,1034.120239 737.604736,1036.918091 
	C729.233032,1038.913696 720.943970,1038.076538 712.776001,1035.072144 
	C704.577820,1032.056641 698.201965,1023.661621 697.990417,1014.897888 
	C697.695190,1002.667969 696.992859,990.436035 697.123535,978.212036 
	C697.206238,970.474121 698.426636,962.729187 704.228333,956.277100 
M733.096313,971.584290 
	C733.312317,968.132019 731.600220,965.486328 728.406555,965.246399 
	C726.732788,965.120605 724.283813,967.148376 723.254150,968.850403 
	C722.171143,970.640503 722.070618,973.199951 722.049500,975.428162 
	C721.942261,986.747498 721.874390,998.070801 722.088989,1009.387085 
	C722.142212,1012.190735 722.916687,1015.150452 724.096924,1017.696655 
	C724.762451,1019.132507 727.164978,1020.934998 728.367798,1020.671143 
	C730.105835,1020.289734 731.943481,1018.439331 732.853699,1016.741333 
	C733.789185,1014.996155 733.951660,1012.681152 733.951965,1010.615417 
	C733.953796,997.809692 733.814819,985.003967 733.096313,971.584290 
z"/>
<path fill="#000000" opacity="1.000000" stroke="none" 
	d="
M1035.000000,997.004517 
	C1030.643311,981.182861 1026.288818,965.782104 1021.867371,950.144409 
	C1029.908936,950.144409 1037.551636,950.144409 1045.788452,950.144409 
	C1048.943604,964.514221 1052.137451,979.060608 1055.331299,993.606995 
	C1055.670166,993.668518 1056.009155,993.730103 1056.348022,993.791626 
	C1058.749634,979.335144 1061.151245,964.878601 1063.590576,950.194946 
	C1071.124512,950.194946 1078.885986,950.194946 1087.383423,950.194946 
	C1086.216187,955.771973 1085.166382,961.085083 1083.987671,966.369385 
	C1079.011963,988.675476 1074.151489,1011.009277 1068.905884,1033.251953 
	C1067.308838,1040.024536 1066.486816,1047.132080 1061.029663,1052.641235 
	C1055.230347,1058.495605 1048.411377,1060.873779 1040.488770,1060.992798 
	C1037.513916,1061.037476 1034.537598,1061.000000 1031.281982,1061.000000 
	C1031.281982,1055.043335 1031.281982,1049.305542 1031.281982,1043.000000 
	C1032.818359,1043.000000 1034.410889,1043.012939 1036.003052,1042.997803 
	C1043.366333,1042.927734 1046.734253,1039.176270 1044.898438,1032.123413 
	C1041.869629,1020.487183 1038.327881,1008.984436 1035.000000,997.004517 
z"/>
<path fill="#000000" opacity="1.000000" stroke="none" 
	d="
M512.859375,964.609131 
	C513.576599,988.482361 514.170349,1011.953674 514.778564,1035.998779 
	C508.275665,1035.998779 501.659088,1036.153687 495.064392,1035.843018 
	C493.993286,1035.792480 492.625275,1033.832031 492.104309,1032.480835 
	C491.510681,1030.941162 491.712616,1029.094727 491.448120,1025.944946 
	C487.701752,1031.973145 484.629944,1036.078003 478.353333,1037.421753 
	C466.840759,1039.886719 456.270844,1031.333008 455.024597,1021.100037 
	C452.605469,1001.237000 462.267212,993.257446 479.167877,986.014404 
	C480.641083,985.383057 482.125885,984.777710 483.588043,984.121704 
	C485.701874,983.173279 489.487122,982.350769 489.597870,981.191589 
	C489.975891,977.233704 489.265411,973.111267 488.480896,969.148499 
	C488.300140,968.235229 486.090637,967.037659 484.960571,967.174561 
	C483.597321,967.339722 481.629547,968.550415 481.262238,969.726624 
	C480.304810,972.792480 480.078369,976.086609 479.415070,980.188232 
	C472.079041,979.776062 464.272949,979.337463 456.464020,978.898682 
	C456.973969,960.269897 464.260315,949.308228 483.933990,948.039673 
	C491.318756,947.563538 498.889954,947.831848 504.659943,953.107483 
	C507.968781,956.132812 510.083496,960.464050 512.859375,964.609131 
M486.742340,996.021667 
	C482.376648,999.715454 478.200592,1003.481506 477.101837,1009.572144 
	C476.387360,1013.532471 479.105438,1019.301819 482.343658,1019.987854 
	C485.638458,1020.685852 489.735565,1018.242493 489.894379,1014.827820 
	C490.210815,1008.024475 489.988098,1001.195984 489.988098,993.671631 
	C488.683228,994.866272 488.091492,995.408081 486.742340,996.021667 
z"/>
<path fill="#000000" opacity="1.000000" stroke="none" 
	d="
M593.000000,930.068298 
	C593.000000,927.593445 593.000000,925.610413 593.000000,923.314148 
	C601.223938,923.314148 609.292175,923.314148 617.756653,923.314148 
	C617.756653,931.877930 617.756653,940.616943 617.756653,949.744751 
	C621.871582,949.744751 625.613892,949.744751 629.677979,949.744751 
	C629.677979,955.198486 629.677979,960.269836 629.677979,965.740112 
	C626.133728,965.740112 622.390930,965.740112 618.000000,965.740112 
	C618.000000,970.704956 618.000000,975.291687 618.000000,979.878479 
	C618.000000,989.535217 617.987976,999.192017 618.004578,1008.848755 
	C618.014099,1014.398376 620.808105,1016.721924 626.562378,1016.156006 
	C628.203003,1015.994629 629.872925,1016.131226 632.000000,1016.131226 
	C632.000000,1019.394714 632.000000,1022.688782 632.000000,1025.982910 
	C632.000000,1029.128906 632.000000,1032.275024 632.000000,1035.995850 
	C623.402283,1035.995850 614.936401,1036.723999 606.656738,1035.793945 
	C598.128357,1034.836304 593.027039,1027.721313 593.010010,1018.975037 
	C592.976135,1001.513428 593.000000,984.051697 593.000000,966.205200 
	C590.072449,966.205200 587.325256,966.205200 584.292480,966.205200 
	C584.292480,960.752991 584.292480,955.678894 584.292480,950.215332 
	C586.924438,950.215332 589.665222,950.215332 593.000000,950.215332 
	C593.000000,943.418701 593.000000,936.989380 593.000000,930.068298 
z"/>
<path fill="#000000" opacity="1.000000" stroke="none" 
	d="
M572.788330,957.291565 
	C576.512573,961.518555 579.212646,965.806519 578.995972,971.199829 
	C575.234436,973.008240 571.475891,974.440613 568.123230,976.525635 
	C564.269897,978.921814 562.342041,977.984619 560.908630,973.925049 
	C560.288513,972.168823 558.940796,970.556824 557.608521,969.185364 
	C553.220215,964.668457 551.300232,964.844971 546.993958,969.907837 
	C549.930237,977.920593 557.589355,981.491394 563.135315,987.073975 
	C568.539307,992.513550 574.584167,997.767883 578.381348,1004.254517 
	C585.410583,1016.262390 579.176819,1031.062378 565.633728,1035.651733 
	C552.632385,1040.057617 540.305603,1038.655151 530.221863,1028.513550 
	C527.355469,1025.630737 525.607544,1021.597900 523.514343,1017.995056 
	C521.566711,1014.642700 524.790955,1014.031311 526.600891,1013.195312 
	C530.650635,1011.324646 534.878113,1009.838867 539.535583,1007.997620 
	C540.919495,1010.142822 542.433777,1012.538635 544.002747,1014.898132 
	C544.630249,1015.841736 545.279785,1016.807739 546.089600,1017.586365 
	C548.783813,1020.176331 554.538818,1020.883118 556.441956,1018.941101 
	C558.135986,1017.212646 556.211304,1011.375122 553.433105,1009.021179 
	C546.322205,1002.996216 539.174622,997.002991 532.294189,990.720581 
	C524.122620,983.259583 523.274475,973.726685 526.080200,963.779297 
	C528.397461,955.564209 535.005005,951.259094 542.714966,949.221191 
	C553.926147,946.257812 564.370483,947.666016 572.788330,957.291565 
z"/>
<path fill="#000000" opacity="1.000000" stroke="none" 
	d="
M670.086182,978.419434 
	C669.223877,980.471802 668.093994,982.215820 668.080383,983.968506 
	C667.947021,1001.095703 668.000000,1018.224304 668.000000,1035.676025 
	C659.801208,1035.676025 651.734802,1035.676025 643.332886,1035.676025 
	C643.332886,1007.382263 643.332886,978.890198 643.332886,950.198486 
	C651.462341,950.198486 659.528442,950.198486 667.952515,950.198486 
	C667.952515,953.742737 667.952515,957.133484 667.952515,960.524292 
	C673.229492,952.615112 679.249695,946.797546 689.813049,949.118713 
	C689.813049,957.290405 689.813049,965.404846 689.813049,974.127136 
	C682.203369,970.395325 675.686584,971.785583 670.086182,978.419434 
z"/>
<path fill="#000000" opacity="1.000000" stroke="none" 
	d="
M1175.000000,1026.962158 
	C1175.000000,1016.169983 1175.000000,1005.873657 1175.000000,994.438721 
	C1179.272949,995.123474 1183.192871,995.838928 1187.141479,996.319519 
	C1188.059204,996.431213 1189.110718,995.824524 1190.038452,995.409241 
	C1194.968140,993.202209 1199.453857,993.445923 1203.209351,997.711853 
	C1207.249512,995.434265 1211.307373,992.514771 1215.977905,995.115845 
	C1218.063477,996.277344 1220.695435,998.823364 1220.774414,1000.831665 
	C1221.230225,1012.415955 1220.996704,1024.027344 1220.996704,1035.797363 
	C1216.851562,1035.797363 1213.117432,1035.797363 1209.030518,1035.797363 
	C1209.030518,1024.848145 1209.030518,1014.095154 1209.030518,1003.349304 
	C1205.254028,1002.372803 1203.900879,1003.613342 1203.953369,1007.204651 
	C1204.091309,1016.651428 1204.000000,1026.101562 1204.000000,1035.773193 
	C1199.932251,1035.773193 1196.197754,1035.773193 1192.093262,1035.773193 
	C1192.093262,1024.934204 1192.093262,1014.186462 1192.093262,1003.338623 
	C1188.469482,1002.483948 1186.900146,1003.400696 1186.954102,1007.095703 
	C1187.092041,1016.552124 1187.000000,1026.011963 1187.000000,1035.734009 
	C1183.013916,1035.734009 1179.277588,1035.734009 1175.000000,1035.734009 
	C1175.000000,1033.001465 1175.000000,1030.229736 1175.000000,1026.962158 
z"/>
<path fill="#000000" opacity="1.000000" stroke="none" 
	d="
M1153.241211,1036.999268 
	C1141.516602,1035.409058 1140.003296,1029.573853 1140.050903,1019.398804 
	C1140.074585,1014.336853 1140.152100,1009.189209 1141.062744,1004.238037 
	C1142.345215,997.265930 1150.245605,992.452271 1157.098145,994.058655 
	C1165.936523,996.130554 1169.929077,1000.260742 1169.073486,1008.910767 
	C1168.649536,1013.198059 1168.575684,1017.612427 1169.082886,1021.881409 
	C1170.387085,1032.856812 1162.364380,1037.290894 1153.241211,1036.999268 
M1157.000000,1012.577698 
	C1157.000000,1010.752258 1157.306274,1008.856018 1156.906006,1007.122986 
	C1156.567017,1005.654846 1155.411011,1004.375305 1154.616455,1003.012207 
	C1153.744751,1004.342346 1152.190308,1005.637817 1152.120728,1007.008728 
	C1151.835205,1012.636597 1151.910889,1018.289490 1152.038452,1023.928894 
	C1152.105713,1026.895142 1153.217041,1028.952881 1157.000000,1027.504150 
	C1157.000000,1022.821472 1157.000000,1018.188660 1157.000000,1012.577698 
z"/>
<path fill="#000000" opacity="1.000000" stroke="none" 
	d="
M1108.000000,1018.935608 
	C1108.411133,1012.747925 1107.955566,1006.804993 1109.473022,1001.417969 
	C1111.040405,995.854065 1118.788818,992.701782 1124.356445,994.155212 
	C1133.131470,996.445984 1136.156250,998.521606 1136.003662,1007.285278 
	C1135.978394,1008.740417 1136.000000,1010.196411 1136.000000,1011.804810 
	C1131.860474,1011.804810 1128.121948,1011.804810 1124.031372,1011.804810 
	C1124.031372,1008.859680 1124.031372,1006.100098 1124.031372,1003.257141 
	C1120.237549,1002.506165 1119.959961,1004.619202 1119.987549,1007.188843 
	C1120.220581,1028.905029 1118.866577,1027.806396 1123.931885,1027.802490 
	C1123.931885,1025.037842 1123.931885,1022.267456 1123.931885,1019.250549 
	C1127.990845,1019.250549 1131.731201,1019.250549 1136.242798,1019.250549 
	C1135.897095,1022.626892 1136.145264,1026.143921 1135.093628,1029.215820 
	C1133.013550,1035.291626 1126.210815,1038.545898 1119.194092,1036.911499 
	C1112.629028,1035.382324 1107.778931,1031.879639 1107.994263,1023.912476 
	C1108.034668,1022.417542 1108.000000,1020.920593 1108.000000,1018.935608 
z"/>
<path fill="#000000" opacity="1.000000" stroke="none" 
	d="
M1099.868652,1035.999878 
	C1096.775635,1036.000000 1094.162842,1036.000000 1091.276123,1036.000000 
	C1091.276123,1032.400146 1091.276123,1029.016846 1091.276123,1025.314697 
	C1094.851196,1025.314697 1098.564819,1025.314697 1102.996460,1025.314697 
	C1102.996460,1028.099121 1103.153687,1031.158691 1102.875977,1034.178101 
	C1102.813477,1034.857056 1101.231445,1035.396240 1099.868652,1035.999878 
z"/>
<path fill="#FEFEFE" opacity="1.000000" stroke="none" 
	d="
M872.332947,378.400452 
	C885.901184,336.126312 915.316406,313.828674 958.220947,308.004578 
	C982.354736,304.728546 1006.445435,305.015167 1030.174927,310.472931 
	C1069.963989,319.624451 1093.815796,344.771484 1102.998169,384.451111 
	C1108.247314,407.133881 1107.234741,430.062500 1107.281494,453.359680 
	C1077.484985,453.359680 1047.950684,453.359680 1017.999084,453.359680 
	C1017.999084,442.453949 1018.274658,431.651154 1017.915466,420.869476 
	C1017.605774,411.574707 1017.348694,402.162628 1015.687683,393.054169 
	C1012.830322,377.385468 1004.019714,370.769501 988.022583,370.718231 
	C971.798279,370.666260 962.278015,377.798767 959.144531,393.895264 
	C957.312805,403.304535 956.486938,413.048340 956.452148,422.646149 
	C956.223877,485.642731 956.270691,548.640625 956.391357,611.637817 
	C956.414001,623.449402 957.205444,635.259888 961.855042,646.392761 
	C966.567017,657.674988 974.748169,664.242920 987.215942,665.018860 
	C1000.630005,665.853699 1011.433655,661.643433 1018.110168,649.283203 
	C1023.720947,638.895874 1025.230225,627.482361 1025.529541,616.015259 
	C1025.976685,598.884521 1025.645630,581.733337 1025.645630,564.005249 
	C1013.183533,564.005249 1000.975281,564.005249 988.531250,564.005249 
	C988.531250,545.826233 988.531250,528.232788 988.531250,510.318665 
	C1028.148315,510.318665 1067.718628,510.318665 1107.594360,510.318665 
	C1107.594360,581.299133 1107.594360,652.360718 1107.594360,723.711853 
	C1087.700195,723.711853 1067.787720,723.711853 1047.495850,723.711853 
	C1045.908936,713.213684 1044.311890,702.649170 1042.594360,691.287109 
	C1041.360962,693.281799 1040.510132,694.634705 1039.681641,696.001160 
	C1026.606445,717.563354 1007.669495,729.153198 982.278870,729.944702 
	C962.992004,730.545959 943.954041,729.129761 925.908386,721.776978 
	C898.373169,710.557434 882.027832,689.195007 873.156555,661.583801 
	C866.028381,639.397766 863.077332,616.494385 863.037476,593.252991 
	C862.948547,541.422791 862.900574,489.591400 863.184875,437.762390 
	C863.294861,417.726471 866.503418,398.027649 872.332947,378.400452 
z"/>
<path fill="#FEFEFE" opacity="1.000000" stroke="none" 
	d="
M324.641174,652.577820 
	C330.980957,619.002747 337.174347,585.834717 343.425568,552.677551 
	C352.293030,505.643768 361.209808,458.619293 370.092682,411.588440 
	C376.200562,379.249939 382.284424,346.906952 388.395752,314.569122 
	C388.549103,313.757812 388.898499,312.983551 389.241119,311.932251 
	C423.762207,311.932251 458.347290,311.932251 493.230103,311.932251 
	C518.803833,449.125366 544.351807,586.180420 569.973328,723.630066 
	C541.906799,723.630066 514.036255,723.630066 485.577850,723.630066 
	C481.055756,695.070801 476.489990,666.235840 471.893555,637.207092 
	C452.053589,637.207092 432.257721,637.207092 411.829712,637.207092 
	C407.121704,665.861938 402.391632,694.651245 397.617157,723.710632 
	C368.940857,723.710632 340.335846,723.710632 311.201050,723.710632 
	C315.644165,700.119690 320.082397,676.554688 324.641174,652.577820 
M462.615448,577.945984 
	C455.707153,527.248047 448.798859,476.550079 441.890594,425.852142 
	C437.744995,451.935822 434.289093,477.955078 430.752106,503.963318 
	C427.224792,529.900208 423.616241,555.826050 419.995209,582.105957 
	C421.440399,582.105957 422.424042,582.106018 423.407684,582.105957 
	C435.727966,582.105835 448.049103,582.029846 460.367950,582.162354 
	C463.215546,582.193054 463.318268,580.918884 462.615448,577.945984 
z"/>
<path fill="#FEFEFE" opacity="1.000000" stroke="none" 
	d="
M716.899414,373.793030 
	C701.386536,371.093384 691.091309,378.960907 687.997742,396.441193 
	C684.900452,413.942719 687.723083,430.767151 699.736572,444.194519 
	C712.125793,458.041962 725.761719,470.826721 739.383667,483.505463 
	C757.399780,500.274139 776.526733,515.759827 792.420776,534.846130 
	C815.978333,563.135254 826.024170,595.438965 824.750488,631.840332 
	C822.963318,682.911316 784.894104,723.812195 734.202576,729.034912 
	C713.466003,731.171387 692.965271,730.227417 672.843140,724.686035 
	C639.054138,715.380920 618.016235,692.966553 607.311584,660.125916 
	C601.996460,643.819824 597.938782,617.279602 598.169983,598.985962 
	C623.903198,595.106140 649.755188,591.208435 675.898071,587.266907 
	C676.579834,595.887817 677.030457,604.319031 677.960815,612.696960 
	C679.286072,624.629883 681.548706,636.374084 687.922058,646.838440 
	C694.513733,657.661316 706.692139,662.694519 718.932495,659.870728 
	C729.938538,657.331726 732.658020,648.402161 733.905212,639.177979 
	C736.672791,618.709167 732.050110,600.014160 719.312988,583.384460 
	C707.254272,567.640625 692.119385,555.119507 677.479126,542.023376 
	C662.725891,528.826172 647.553528,515.985779 633.861511,501.742584 
	C617.064087,484.269043 604.374817,464.071259 600.551453,439.362152 
	C597.069336,416.858765 597.423340,394.535767 604.476440,372.765564 
	C613.900024,343.678680 634.085876,324.634460 662.400085,314.414154 
	C689.797913,304.524750 718.151550,303.193085 746.466614,309.491943 
	C773.795105,315.571259 792.748962,332.416870 803.978943,358.094635 
	C812.250244,377.007416 814.935181,397.022949 816.327698,417.336700 
	C816.460449,419.273254 816.536194,421.213745 816.655579,423.478973 
	C790.416382,426.721893 764.537537,429.920288 738.023499,433.197174 
	C737.704468,427.742859 737.674255,422.461121 737.029236,417.255585 
	C735.907959,408.206970 734.990662,399.066895 732.893066,390.224915 
	C730.978577,382.154694 726.355652,375.642792 716.899414,373.793030 
z"/>
<path fill="#FCFCFC" opacity="1.000000" stroke="none" 
	d="
M234.421982,218.166779 
	C243.247543,214.527115 250.690125,215.824127 256.210571,221.736816 
	C261.252869,227.137375 262.468658,234.913879 259.318695,241.617462 
	C256.077118,248.516006 249.183853,252.539612 241.549164,251.989624 
	C233.974213,251.443924 227.657043,246.061630 225.582382,238.385712 
	C223.518433,230.749435 226.541626,223.611862 234.421982,218.166779 
z"/>
<path fill="#FCFCFC" opacity="1.000000" stroke="none" 
	d="
M1184.919312,782.826416 
	C1193.510986,788.215576 1196.724121,795.793945 1194.210449,804.073792 
	C1191.807983,811.987427 1184.878784,817.111450 1176.726074,817.003052 
	C1168.477905,816.893372 1161.394897,811.311218 1159.480225,803.082275 
	C1157.878418,796.198242 1159.801636,790.140259 1165.100586,785.518372 
	C1170.864990,780.490417 1177.480225,779.527710 1184.919312,782.826416 
z"/>
<path fill="#FCFCFC" opacity="1.000000" stroke="none" 
	d="
M1160.836914,226.111969 
	C1165.862305,218.081482 1173.079224,214.602310 1180.638062,216.289474 
	C1188.030151,217.939392 1193.702881,223.906418 1194.858154,231.247452 
	C1196.007080,238.548187 1192.291626,246.120239 1185.775879,249.756897 
	C1179.203125,253.425354 1171.044922,252.613083 1165.303955,247.718750 
	C1159.207520,242.521362 1157.588135,235.074524 1160.836914,226.111969 
z"/>
<path fill="#FFFFFF" opacity="1.000000" stroke="none" 
	d="
M259.092224,791.318970 
	C261.857239,800.583618 258.911316,808.217102 251.658188,812.677002 
	C244.779831,816.906433 236.903732,816.010132 230.028076,810.446655 
	C225.782150,807.010986 223.575439,796.989685 225.551498,791.958069 
	C228.409012,784.682007 234.592606,780.241577 241.408020,779.946045 
	C249.906189,779.577637 255.418762,783.592590 259.092224,791.318970 
z"/>
<path fill="#FFFFFF" opacity="1.000000" stroke="none" 
	d="
M243.979965,981.770386 
	C245.080429,972.438049 246.163620,963.558899 247.246796,954.679688 
	C247.534164,954.634827 247.821533,954.590027 248.108902,954.545166 
	C249.891068,967.459167 251.673248,980.373108 253.510193,993.683960 
	C249.344345,993.683960 245.787613,993.683960 241.949814,993.683960 
	C242.633224,989.792969 243.297958,986.008240 243.979965,981.770386 
z"/>
<path fill="#FFFFFF" opacity="1.000000" stroke="none" 
	d="
M880.000000,1013.590759 
	C880.161926,1017.620239 878.309326,1020.747864 875.116577,1020.609741 
	C873.165100,1020.525330 871.186096,1017.117371 869.578430,1014.937195 
	C868.906006,1014.025452 869.025391,1012.427429 869.021667,1011.140747 
	C868.985718,998.641846 868.999695,986.142822 869.000549,973.643799 
	C869.000610,972.810547 868.753052,971.865601 869.059021,971.163635 
	C870.311340,968.289856 871.144775,964.471252 875.341431,965.109558 
	C878.981140,965.663086 879.999573,968.756775 879.999756,972.141418 
	C880.000427,985.807007 880.000000,999.472595 880.000000,1013.590759 
z"/>
<path fill="#FFFFFF" opacity="1.000000" stroke="none" 
	d="
M733.409424,971.891235 
	C733.814819,985.003967 733.953796,997.809692 733.951965,1010.615417 
	C733.951660,1012.681152 733.789185,1014.996155 732.853699,1016.741333 
	C731.943481,1018.439331 730.105835,1020.289734 728.367798,1020.671143 
	C727.164978,1020.934998 724.762451,1019.132507 724.096924,1017.696655 
	C722.916687,1015.150452 722.142212,1012.190735 722.088989,1009.387085 
	C721.874390,998.070801 721.942261,986.747498 722.049500,975.428162 
	C722.070618,973.199951 722.171143,970.640503 723.254150,968.850403 
	C724.283813,967.148376 726.732788,965.120605 728.406555,965.246399 
	C731.600220,965.486328 733.312317,968.132019 733.409424,971.891235 
z"/>
<path fill="#FFFFFF" opacity="1.000000" stroke="none" 
	d="
M487.121033,995.985718 
	C488.091492,995.408081 488.683228,994.866272 489.988098,993.671631 
	C489.988098,1001.195984 490.210815,1008.024475 489.894379,1014.827820 
	C489.735565,1018.242493 485.638458,1020.685852 482.343658,1019.987854 
	C479.105438,1019.301819 476.387360,1013.532471 477.101837,1009.572144 
	C478.200592,1003.481506 482.376648,999.715454 487.121033,995.985718 
z"/>
<path fill="#FFFFFF" opacity="1.000000" stroke="none" 
	d="
M1157.000000,1013.066772 
	C1157.000000,1018.188660 1157.000000,1022.821472 1157.000000,1027.504150 
	C1153.217041,1028.952881 1152.105713,1026.895142 1152.038452,1023.928894 
	C1151.910889,1018.289490 1151.835205,1012.636597 1152.120728,1007.008728 
	C1152.190308,1005.637817 1153.744751,1004.342346 1154.616455,1003.012207 
	C1155.411011,1004.375305 1156.567017,1005.654846 1156.906006,1007.122986 
	C1157.306274,1008.856018 1157.000000,1010.752258 1157.000000,1013.066772 
z"/>
<path fill="#020202" opacity="1.000000" stroke="none" 
	d="
M462.695923,578.392456 
	C463.318268,580.918884 463.215546,582.193054 460.367950,582.162354 
	C448.049103,582.029846 435.727966,582.105835 423.407684,582.105957 
	C422.424042,582.106018 421.440399,582.105957 419.995209,582.105957 
	C423.616241,555.826050 427.224792,529.900208 430.752106,503.963318 
	C434.289093,477.955078 437.744995,451.935822 441.890594,425.852142 
	C448.798859,476.550079 455.707153,527.248047 462.695923,578.392456 
z"/>
</svg>